<svg xmlns="http://www.w3.org/2000/svg" viewBox="0 0 200 200" width="200" height="200" fill="none">

  <!-- The <rect> tag that caused the white background and black border has been removed -->

  <path fill="url(#a)" d="M86.49 31.44c-14.01 0-28.18 14.17-28.18 30.2 0 2.11.27 4.19.72 6.19-.05-.74-.1-1.49-.1-2.22 0-15.36 14.01-29.1 30.71-29.1 9.63 0 18.14 4.32 25.6 11.38-5.66-9.67-15.15-16.45-26.92-16.45z"/>
  <path fill="url(#b)" d="M86.29 39.27c15.33 0 33.9 13.74 33.9 30.79 0 6.1-2.42 12.31-4.75 16.53l-1.28-1.29c1.28-3.39 1.77-6.92 1.77-10.48 0-15.39-13.5-34.91-29.64-35.55"/>
  <path fill="url(#c)" d="M66.28 37.12c-9.4 7.15-15.56 16.45-15.56 27.9 0 13.94 11.22 27.69 27.57 30.1v-2.07c-12.13-3.66-23.48-17.29-23.48-29.73 0-9.51 4.33-18.14 11.47-26.2"/>
  <path fill="url(#d)" d="M55.66 86.2c5.73 8.38 13.72 13.63 22.63 15.84v-3.83c-9.37-1.05-15.98-4.55-22.63-12.01"/>
  <path fill="url(#e)" d="M85.86 45.16c-11.44 0-21.29 9.58-21.29 21.28 0 9.27 5.5 17.3 13.73 19.15v-2.52c-6.12-2.41-11.52-9.29-11.52-16.65 0-10.09 8.85-20.93 19.69-20.93 10.64 0 19.77 8.6 19.77 21.66 0 2.8-.75 5.66-2.01 8.37l-2.05-2.06c.4-1.43.63-2.93.63-4.47 0-9.93-10.03-18.92-20.07-18.92 1.1-.29 2.4-.42 3.75-.42 6.93 0 13.2 3.46 17.89 9.06-3.5-8.07-10.32-13.55-18.52-13.55"/>
  <path fill="url(#f)" d="M110.4 66.02c.44 4.07-.64 8.59-2.44 12.47l1.88 1.88c2.23-4.7 2.98-10.41.56-14.35"/>
  <path fill="url(#g)" d="M83.23 63.32v92.24h4.06v-4.49h4.89v-4.49h-5.37V71.36h4.06v-3.62h-3.58v-4.42z"/>
  <path fill="url(#h)" d="M90.87 71.36v4.15h3.94v4.73h4.31v-4.73h-4v-4.15z"/>
  <path fill="url(#i)" d="M99.12 81.7v3.38h4.6v3.88h3.94v-3.88h-3.76V81.7z"/>
  <path fill="url(#j)" d="M107.7 89.91v4.27h4.65v4.03h4.39v-4.03h-4.06v-4.27z"/>
  <path fill="url(#k)" d="M116 98.21v4.11h4.94v4.01h4.48v-4.01h-4.25v-4.11z"/>
  <path fill="url(#l)" d="M125 106.3v4.45h4.6v4.14h4.31v-4.14h-4v-4.45z"/>
  <path fill="url(#m)" d="M133.9 115.2v4.34h4.6v5.77h-18.34v12.9h4.77v-8.45h23.82v-4.29h-4.39v-4.71h-4.43v-5.56z"/>
  <path fill="url(#n)" d="M124.7 137.9v8.29h4.65v8.25h4.39v-8.25h-4.25v-8.29z"/>
  <path fill="url(#o)" d="M133.9 154.8v8.73h4.36v-8.73z"/>
  <path fill="url(#p)" d="M121.9 163.2v5.13h12.41v-5.13z"/>
  <path fill="url(#q)" d="M117.6 154.5v8.45h4.39v-8.45z"/>
  <path fill="url(#r)" d="M113.2 146.1v8.41h4.47v-8.41z"/>
  <path fill="url(#s)" d="M108.3 137.9v7.8h4.53v-7.8z"/>
  <path fill="url(#t)" d="M104 130.4v3.86h-3.82v4.62h-4.12v4.31h-3.58v4.42h4.25v-9.01h5.71v-.69h6.3v-7.51z"/>

  <defs>
    <linearGradient id="a" x1="86.77" x2="86.77" y1="31.44" y2="67.83" gradientUnits="userSpaceOnUse"><stop offset="0" stop-color="#000"/><stop offset="1" stop-color="#000"/></linearGradient>
    <linearGradient id="b" x1="99.57" x2="99.57" y1="39.27" y2="86.59" gradientUnits="userSpaceOnUse"><stop offset="0" stop-color="#000"/><stop offset="1" stop-color="#000"/></linearGradient>
    <linearGradient id="c" x1="64.5" x2="64.5" y1="37.12" y2="95.12" gradientUnits="userSpaceOnUse"><stop offset="0" stop-color="#000"/><stop offset="1" stop-color="#000"/></linearGradient>
    <linearGradient id="d" x1="66.98" x2="66.98" y1="86.2" y2="102" gradientUnits="userSpaceOnUse"><stop offset="0" stop-color="#000"/><stop offset="1" stop-color="#000"/></linearGradient>
    <linearGradient id="e" x1="85.48" x2="85.48" y1="45.16" y2="85.59" gradientUnits="userSpaceOnUse"><stop offset="0" stop-color="#000"/><stop offset="1" stop-color="#000"/></linearGradient>
    <linearGradient id="f" x1="109.9" x2="109.9" y1="66.02" y2="80.37" gradientUnits="userSpaceOnUse"><stop offset="0" stop-color="#000"/><stop offset="1" stop-color="#000"/></linearGradient>
    <linearGradient id="g" x1="87.71" x2="87.71" y1="63.32" y2="155.6" gradientUnits="userSpaceOnUse"><stop offset="0" stop-color="#000"/><stop offset="1" stop-color="#000"/></linearGradient>
    <linearGradient id="h" x1="94.99" x2="94.99" y1="71.36" y2="80.24" gradientUnits="userSpaceOnUse"><stop offset="0" stop-color="#000"/><stop offset="1" stop-color="#000"/></linearGradient>
    <linearGradient id="i" x1="103.4" x2="103.4" y1="81.7" y2="88.96" gradientUnits="userSpaceOnUse"><stop offset="0" stop-color="#000"/><stop offset="1" stop-color="#000"/></linearGradient>
    <linearGradient id="j" x1="112.2" x2="112.2" y1="89.91" y2="98.21" gradientUnits="userSpaceOnUse"><stop offset="0" stop-color="#000"/><stop offset="1" stop-color="#000"/></linearGradient>
    <linearGradient id="k" x1="120.8" x2="120.8" y1="98.21" y2="106.3" gradientUnits="userSpaceOnUse"><stop offset="0" stop-color="#000"/><stop offset="1" stop-color="#000"/></linearGradient>
    <linearGradient id="l" x1="129.5" x2="129.5" y1="106.3" y2="114.9" gradientUnits="userSpaceOnUse"><stop offset="0" stop-color="#000"/><stop offset="1" stop-color="#000"/></linearGradient>
    <linearGradient id="m" x1="129.5" x2="129.5" y1="115.2" y2="129.8" gradientUnits="userSpaceOnUse"><stop offset="0" stop-color="#000"/><stop offset="1" stop-color="#000"/></linearGradient>
    <linearGradient id="n" x1="129.2" x2="129.2" y1="137.9" y2="154.5" gradientUnits="userSpaceOnUse"><stop offset="0" stop-color="#000"/><stop offset="1" stop-color="#000"/></linearGradient>
    <linearGradient id="o" x1="136.1" x2="136.1" y1="154.8" y2="163.5" gradientUnits="userSpaceOnUse"><stop offset="0" stop-color="#000"/><stop offset="1" stop-color="#000"/></linearGradient>
    <linearGradient id="p" x1="128.1" x2="128.1" y1="163.2" y2="168.3" gradientUnits="userSpaceOnUse"><stop offset="0" stop-color="#000"/><stop offset="1" stop-color="#000"/></linearGradient>
    <linearGradient id="q" x1="119.8" x2="119.8" y1="154.5" y2="162.9" gradientUnits="userSpaceOnUse"><stop offset="0" stop-color="#000"/><stop offset="1" stop-color="#000"/></linearGradient>
    <linearGradient id="r" x1="115.4" x2="115.4" y1="146.1" y2="154.5" gradientUnits="userSpaceOnUse"><stop offset="0" stop-color="#000"/><stop offset="1" stop-color="#000"/></linearGradient>
    <linearGradient id="s" x1="110.5" x2="110.5" y1="137.9" y2="145.7" gradientUnits="userSpaceOnUse"><stop offset="0" stop-color="#000"/><stop offset="1" stop-color="#000"/></linearGradient>
    <linearGradient id="t" x1="100.6" x2="100.6" y1="130.4" y2="147.6" gradientUnits="userSpaceOnUse"><stop offset="0" stop-color="#000"/><stop offset="1" stop-color="#000"/></linearGradient>
  </defs>
</svg>
