<svg xmlns="http://www.w3.org/2000/svg" viewBox="285.327 135.199 123.916 125.062">
    <path style="stroke-width:1" d="m393.16 197.889 1.782 1.782 1.781 1.781 1.822 1.782-1.781 1.79-1.782 1.781-1.781 1.782-1.782 1.781-1.822 1.782-1.782-1.782-1.781 1.782-1.782 1.781-1.781 1.782-1.782-1.782-1.782 1.782 1.782 1.782 1.782 1.781 1.781 1.782 1.782 1.781 1.781 1.782 1.782 1.781 1.781 1.782 1.782 1.782 1.782 1.822 1.781 1.781 1.822 1.741 1.782 1.782 1.782 1.782 1.781 1.781 1.782 1.79 1.781 1.781 1.79 1.782-1.79 1.782-1.781 1.781-1.782 1.782-1.781 1.781-1.782 1.782-1.782 1.781-1.781 1.782-1.822 1.782-1.782-1.782-1.782-1.782-1.781-1.781-1.782-1.782-1.781-1.781-1.782-1.782-1.781-1.781-1.782-1.782-1.782-1.782-1.781-1.781-1.782-1.79-1.781-1.781-1.782-1.782-1.79-1.782-1.781-1.781-1.782-1.741-1.781-1.782-1.782 1.782-1.741 1.741 1.782 1.781-1.782 1.782-1.781 1.782 1.781 1.781-1.781 1.79-1.782 1.781-1.782 1.782-1.781 1.782-1.822 1.781-1.782-1.781-1.782-1.782-1.781-1.782 1.781-1.781-1.781-1.79 1.781-1.781 1.782 1.781 1.782 1.79-1.782 1.781 1.782 1.782 1.781-1.782 1.782-1.781 1.781-1.79-1.781-1.781 1.781-1.782 1.782-1.782-1.782-1.781 1.782-1.741 1.822-1.822 1.782-1.782 1.781-1.782 1.782 1.782 1.781 1.782 1.741 1.822 1.79 1.781 1.782 1.782 1.781 1.782 1.782 1.781 1.781 1.782 1.782 1.79 1.782 1.781 1.781 1.782 1.782 1.781 1.781 1.782 1.782 1.741 1.781 1.781 1.782 1.782 1.782 1.781 1.781-1.781 1.822-1.782 1.782-1.781 1.782-1.782 1.781-1.781 1.782-1.782-1.782-1.782-1.822-1.781-1.782-1.79-1.741-1.781-1.781-1.782-1.782-1.782-1.781-1.781-1.823-1.741-1.781-1.822-1.782-1.782-1.781-1.782-1.782-1.781-1.781-1.782-1.782-1.781-1.782-1.782-1.781-1.781-1.782-1.782 1.782-1.782 1.781-1.781 1.782-1.782 1.782 1.782 1.781-1.782 1.782-1.781 1.781-1.782 1.782 1.782 1.781-1.782 1.782-1.781 1.782-1.79-1.782-1.782-1.782 1.782-1.781-1.782-1.782-1.781 1.782-1.782 1.781 1.782 1.782-1.782Zm-39.203-3.522 1.782-1.782 1.781 1.782 1.782 1.781 1.822-1.781 1.782 1.781 1.781 1.782 1.782-1.782 1.781 1.782 1.782 1.781 1.79-1.781 1.781 1.781 1.782-1.781 1.781 1.781 1.782-1.781 1.782 1.781 1.781 1.782 1.782-1.782 1.781 1.782 1.782-1.782-1.782-1.781-1.781-1.782-1.782 1.782-1.781-1.782-1.823-1.781-1.781 1.781-1.782-1.781-1.781 1.781-1.782-1.781-1.79 1.781-1.781-1.781-1.782-1.782-1.781 1.782-1.782-1.782-1.741-1.822-1.781 1.781-1.782-1.781-1.822-1.782-1.782 1.782-1.781-1.782-1.782 1.782 1.782 1.781 1.781 1.823Zm-17.816-3.604 1.782-1.782 1.781 1.782 1.782-1.782 1.782 1.782 1.781 1.781 1.782-1.781 1.781 1.781 1.782-1.781-1.782-1.782-1.781-1.781-1.782 1.781-1.781-1.781-1.782-1.782-1.782 1.782-1.781-1.782-1.782 1.782-1.781-1.782-1.79 1.782 1.79 1.781-1.79 1.782 1.79 1.781 1.781 1.823 1.782-1.782-1.782-1.822Zm5.345 19.605 1.782-1.781-1.782-1.782-1.782-1.781 1.782-1.79-1.782-1.782-1.781-1.781 1.781-1.782-1.781-1.782-1.782-1.74-1.781 1.74 1.781 1.782-1.781 1.782 1.781 1.781 1.782 1.782-1.782 1.79 1.782 1.781 1.781 1.782-1.781 1.781 1.781 1.782 1.782 1.781 1.782-1.781-1.782-1.782Zm5.345 19.598 1.781-1.782-1.781-1.782-1.782-1.781 1.782-1.782-1.782-1.781 1.782-1.782-1.782-1.781-1.781-1.782-1.782-1.782-1.782 1.782 1.782 1.782 1.782 1.781-1.782 1.782 1.782 1.781-1.782 1.782 1.782 1.781 1.781 1.782-1.781 1.782 1.781 1.822 1.782 1.781 1.781-1.781-1.781-1.822Zm1.781 5.344-1.781-1.781-1.782 1.781 1.782 1.782 1.781 1.782 1.782-1.782-1.782-1.782Zm-33.8-100.111h6.55l-.477 19.656-4.165-.095-1.908-19.561Zm1.527 46.055 3.305.191 1.718 19.274h-6.55l1.527-19.465Zm-31.012-16.57 19.656 1.527.095 3.783-19.751 1.24v-6.55Zm46.246 1.813 19.274-1.813v6.55l-19.179-1.05-.095-3.687Zm-39.694-24.746h6.551v6.551h-6.551v-6.551Zm6.551 6.551h6.553v6.553h-6.553v-6.553Zm6.553 6.553h6.552v6.552h-6.552v-6.552Zm32.76-13.104h6.55v6.551h-6.55v-6.551Zm-6.552 6.551h6.552v6.553h-6.552v-6.553Zm-6.553 6.553h6.553v6.552h-6.553v-6.552Zm-32.759 32.76h6.551v6.55h-6.551v-6.55Zm6.551-6.552h6.553v6.552h-6.553v-6.552Zm6.553-6.553h6.552v6.553h-6.552v-6.553Z"/>
</svg>
