<svg xmlns="http://www.w3.org/2000/svg" width="59" height="59" fill="none"><path fill="#fff" d="m1.307 20.148-.038-2.822 8.464-.115.039 2.821-8.465.116ZM26.7 19.8l-.038-2.821 8.464-.116.039 2.822-8.465.116ZM19.86 35.416l-2.821.038-.116-8.464 2.821-.038.116 8.464Zm-.347-25.393-2.822.038-.116-8.464 2.822-.038.116 8.464ZM7.419 31.623l-2.02-1.968 5.903-6.066 2.022 1.968-5.903 6.066H7.42Zm17.713-18.201-2.023-1.968 5.903-6.066 2.022 1.968-5.902 6.066Zm-12-1.831-1.967 2.022L5.1 7.71l1.968-2.022 6.066 5.903Z"/><path stroke="#fff" stroke-linecap="round" stroke-linejoin="round" stroke-width="2.5" d="M24.116 25.572a.931.931 0 0 1 1.225-1.224L55.44 36.575a.94.94 0 0 1-.118 1.781L43.8 41.33a3.763 3.763 0 0 0-2.705 2.7l-2.97 11.523a.94.94 0 0 1-1.782.118L24.116 25.572Z"/></svg>
