<?xml version="1.0" encoding="UTF-8" standalone="no" ?>
<!DOCTYPE svg PUBLIC "-//W3C//DTD SVG 1.1//EN" "http://www.w3.org/Graphics/SVG/1.1/DTD/svg11.dtd">
<svg xmlns="http://www.w3.org/2000/svg" xmlns:xlink="http://www.w3.org/1999/xlink" version="1.1" width="1080" height="1080" viewBox="0 0 1080 1080" xml:space="preserve">
<desc>Created with Fabric.js 5.2.4</desc>
<defs>
</defs>
<rect x="0" y="0" width="100%" height="100%" fill="transparent"></rect>
<g transform="matrix(1 0 0 1 540 540)" id="8e7387e6-c6f1-4ce6-807a-085f504858e5"  >
<rect style="stroke: none; stroke-width: 1; stroke-dasharray: none; stroke-linecap: butt; stroke-dashoffset: 0; stroke-linejoin: miter; stroke-miterlimit: 4; fill: rgb(255,255,255); fill-rule: nonzero; opacity: 1; visibility: hidden;" vector-effect="non-scaling-stroke"  x="-540" y="-540" rx="0" ry="0" width="1080" height="1080" />
</g>
<g transform="matrix(1 0 0 1 540 540)" id="4566b488-aed8-4195-86be-b33408fbb3bd"  >
</g>
<g transform="matrix(2.73 0 0 2.73 539.86 571.72)"  >
<path style="stroke: none; stroke-width: 1; stroke-dasharray: none; stroke-linecap: butt; stroke-dashoffset: 0; stroke-linejoin: miter; stroke-miterlimit: 4; fill: rgb(255,154,48); fill-rule: nonzero; opacity: 1;" vector-effect="non-scaling-stroke"  transform=" translate(-200, -211.59)" d="M 325 280 L 75 280 C 58.431457505076196 280 45 266.5685424949238 45 250 L 45 173.17 C 45 156.60145750507618 58.431457505076196 143.17 75 143.17 L 75.2 143.17 L 325.2 144.82999999999998 C 341.6737811299532 144.9832304590432 354.96143696492425 158.35557782734682 355.01 174.82999999999998 L 355.01 250 C 355.0100004421238 257.9582276085691 351.8479225562982 265.5903608521355 346.2196681963674 271.2167397524329 C 340.59141383643663 276.84311865273025 332.95822716644534 280.0026527425362 325 280 Z M 75 153.17 C 63.954305003384135 153.17 55 162.1243050033841 55 173.17 L 55 250 C 55 261.04569499661585 63.954305003384135 270 75 270 L 325 270 C 336.04569499661585 270 345 261.04569499661585 345 250 L 345 174.83 C 344.967583704357 163.84447852601383 336.10512746334746 154.92852657328794 325.12 154.83 L 75.12 153.17000000000002 Z" stroke-linecap="round" />
</g>
<g transform="matrix(2.73 0 0 2.73 466.59 559.73)"  >
<path style="stroke: none; stroke-width: 1; stroke-dasharray: none; stroke-linecap: butt; stroke-dashoffset: 0; stroke-linejoin: miter; stroke-miterlimit: 4; fill: rgb(255,154,48); fill-rule: nonzero; opacity: 1;" vector-effect="non-scaling-stroke"  transform=" translate(-150.31, -209.34)" d="M 139.82 236 L 130.20999999999998 236 L 130.20999999999998 182.68 L 152.04999999999998 182.68 Q 161.39 182.68 165.89999999999998 187.39000000000001 C 172.05871151734374 193.85973716874713 171.8940668706514 204.0721551189896 165.52999999999997 210.34 C 162.15214018245408 213.40692959443413 157.70955909622387 215.0325267124166 153.14999999999998 214.87 L 139.82 214.87 Z M 139.82 206.63 L 151.19 206.63 Q 155.64 206.63 157.99 204.44 C 159.57378540961102 202.9288929041716 160.4269682547094 200.8068740330294 160.33 198.62 C 160.36660191914683 196.53547522923444 159.58800245931948 194.5190102687599 158.16000000000003 193 Q 155.99000000000004 190.66 150.33 190.66 L 139.82 190.66 Z" stroke-linecap="round" />
</g>
<g transform="matrix(2.73 0 0 2.73 778.9 164.47)"  >
<path style="stroke: none; stroke-width: 1; stroke-dasharray: none; stroke-linecap: butt; stroke-dashoffset: 0; stroke-linejoin: miter; stroke-miterlimit: 4; fill: rgb(255,154,48); fill-rule: nonzero; opacity: 1;" vector-effect="non-scaling-stroke"  transform=" translate(-287.5, -62.5)" d="M 325 105 L 250 105 C 247.23857625084602 105 245 102.76142374915396 245 100 L 245 25 C 245 22.238576250846034 247.23857625084602 20 250 20 C 252.76142374915398 20 255 22.23857625084603 255 25 L 255 95 L 325 95 C 327.76142374915395 95 330 97.23857625084604 330 100 C 330 102.76142374915396 327.76142374915395 105 325 105 Z" stroke-linecap="round" />
</g>
<g transform="matrix(2.73 0 0 2.73 539.87 232.48)"  >
<path style="stroke: none; stroke-width: 1; stroke-dasharray: none; stroke-linecap: butt; stroke-dashoffset: 0; stroke-linejoin: miter; stroke-miterlimit: 4; fill: rgb(255,154,48); fill-rule: nonzero; opacity: 1;" vector-effect="non-scaling-stroke"  transform=" translate(-200, -87.41)" d="M 325 154.83 C 322.23857625084605 154.83 320 152.591423749154 320 149.83 L 320 102.07 L 247.93 30 L 100 30 C 88.95430500338414 30 80 38.954305003384135 80 50 L 80 148.17000000000002 C 80 150.931423749154 77.76142374915396 153.17000000000002 75 153.17000000000002 C 72.23857625084604 153.17000000000002 70 150.931423749154 70 148.17000000000002 L 70 50 C 70 33.431457505076196 83.4314575050762 20 100 20 L 250 20 C 251.32698863655582 19.99763003632274 252.6004926632903 20.52286051062565 253.54 21.46 L 328.53999999999996 96.46000000000001 C 329.47713948937434 97.39950733670969 330.00236996367727 98.67301136344416 330 100 L 330 149.82999999999998 C 330 151.1560824491977 329.47321579817293 152.42785201369256 328.53553390593277 153.36553390593275 C 327.59785201369255 154.30321579817291 326.3260824491977 154.83 325 154.83 Z" stroke-linecap="round" />
</g>
<g transform="matrix(2.73 0 0 2.73 539.87 881.31)"  >
<path style="stroke: none; stroke-width: 1; stroke-dasharray: none; stroke-linecap: butt; stroke-dashoffset: 0; stroke-linejoin: miter; stroke-miterlimit: 4; fill: rgb(255,154,48); fill-rule: nonzero; opacity: 1;" vector-effect="non-scaling-stroke"  transform=" translate(-200, -325)" d="M 300 380 L 100 380 C 83.4314575050762 380 70 366.5685424949238 70 350 L 70 275 C 70 272.23857625084605 72.23857625084604 270 75 270 C 77.76142374915396 270 80 272.23857625084605 80 275 L 80 350 C 80 361.04569499661585 88.95430500338414 370 100 370 L 300 370 C 311.04569499661585 370 320 361.04569499661585 320 350 L 320 275 C 320 272.23857625084605 322.23857625084605 270 325 270 C 327.76142374915395 270 330 272.23857625084605 330 275 L 330 350 C 330 366.5685424949238 316.5685424949238 380 300 380 Z" stroke-linecap="round" />
</g>
<g transform="matrix(2.73 0 0 2.73 539.92 744.81)"  >
<path style="stroke: none; stroke-width: 1; stroke-dasharray: none; stroke-linecap: butt; stroke-dashoffset: 0; stroke-linejoin: miter; stroke-miterlimit: 4; fill: rgb(255,154,48); fill-rule: nonzero; opacity: 1;" vector-effect="non-scaling-stroke"  transform=" translate(-200, -275)" d="M 275 280 L 125 280 C 122.23857625084604 280 120 277.76142374915395 120 275 C 120 272.23857625084605 122.23857625084604 270 125 270 L 275 270 C 277.76142374915395 270 280 272.23857625084605 280 275 C 280 277.76142374915395 277.76142374915395 280 275 280 Z" stroke-linecap="round" />
</g>
<g transform="matrix(2.73 0 0 2.73 437.54 881.35)"  >
<path style="stroke: none; stroke-width: 1; stroke-dasharray: none; stroke-linecap: butt; stroke-dashoffset: 0; stroke-linejoin: miter; stroke-miterlimit: 4; fill: rgb(255,154,48); fill-rule: nonzero; opacity: 1;" vector-effect="non-scaling-stroke"  transform=" translate(-162.5, -325)" d="M 200 330 L 125 330 C 122.23857625084604 330 120 327.76142374915395 120 325 C 120 322.23857625084605 122.23857625084604 320 125 320 L 200 320 C 202.76142374915398 320 205 322.23857625084605 205 325 C 205 327.76142374915395 202.76142374915398 330 200 330 Z" stroke-linecap="round" />
</g>
<g transform="matrix(2.73 0 0 2.73 598.54 560.3)"  >
<path style="stroke: rgb(255,151,47); stroke-opacity: 0.21; stroke-width: 1; stroke-dasharray: none; stroke-linecap: butt; stroke-dashoffset: 0; stroke-linejoin: miter; stroke-miterlimit: 4; fill: rgb(255,154,48); fill-rule: nonzero; opacity: 1;" vector-effect="non-scaling-stroke"  transform=" translate(-151.25, -209.34)" d="M 171.89 236 L 161.74 236 L 153.46 214.09 L 139.94 214.09 L 139.94 236 L 130.32999999999998 236 L 130.32999999999998 182.68 L 153.45999999999998 182.68 Q 163.10999999999999 182.68 167.64 187.04000000000002 C 170.67787292311152 189.98563201984103 172.32414685437303 194.08132897465723 172.17 198.31000000000003 Q 172.17 208.58000000000004 162.56 212.45000000000005 Z M 139.89 206.39 L 151.89 206.39 Q 157.07999999999998 206.39 159.61999999999998 204.2 C 161.33411369481314 202.68965887031996 162.26869129708112 200.48199524291527 162.15999999999997 198.2 C 162.23310777106053 196.02513577096283 161.31317800730648 193.93505534771361 159.65999999999997 192.51999999999998 C 157.66985609380882 190.96630034802936 155.18001173344393 190.19444859631625 152.65999999999997 190.35 L 139.94 190.35 Z" stroke-linecap="round" />
</g>
</svg>