<svg xmlns="http://www.w3.org/2000/svg" width="1080" height="1080" role="img">
	<title>PromptReady Logo</title>
	<rect width="100%" height="100%" fill="transparent"/>
	<path vector-effect="non-scaling-stroke" d="M881.11 758.48h-682.5c-45.232 0-81.9-36.669-81.9-81.9V466.832c0-45.232 36.668-81.9 81.9-81.9h.546l682.5 4.532c44.973.419 81.249 36.925 81.381 81.9V676.58a81.9 81.9 0 01-81.927 81.9zm-682.5-346.247c-30.155 0-54.6 24.446-54.6 54.6V676.58c0 30.155 24.445 54.6 54.6 54.6h682.5c30.155 0 54.6-24.445 54.6-54.6V471.365c-.088-29.99-24.283-54.33-54.272-54.6l-682.5-4.532z"/>
	<path vector-effect="non-scaling-stroke" d="M437.952 632.512h-26.235V486.948h59.623q25.498 0 37.81 12.859c16.814 17.662 16.365 45.542-1.01 62.653a47.748 47.748 0 01-33.797 12.367h-36.39zm0-80.18h31.04q12.149 0 18.564-5.979a20.693 20.693 0 006.389-15.889 21.84 21.84 0 00-5.924-15.342q-5.925-6.388-21.376-6.388h-28.693zM881.275 280.495h-204.75c-7.539 0-13.65-6.111-13.65-13.65V62.095c0-7.539 6.111-13.65 13.65-13.65 7.539 0 13.65 6.111 13.65 13.65v191.1h191.1c7.539 0 13.65 6.111 13.65 13.65 0 7.539-6.111 13.65-13.65 13.65z"/>
	<path vector-effect="non-scaling-stroke" d="M881.25 414.777c-7.539 0-13.65-6.112-13.65-13.65V270.742L670.849 73.99H267c-30.155 0-54.6 24.445-54.6 54.6v268.004c0 7.538-6.111 13.65-13.65 13.65-7.539 0-13.65-6.112-13.65-13.65V128.59c0-45.232 36.668-81.9 81.9-81.9h409.5a13.65 13.65 0 019.664 3.986l204.75 204.75a13.65 13.65 0 013.986 9.664v136.036a13.65 13.65 0 01-13.65 13.65zM812.87 1031.46h-546c-45.232 0-81.9-36.668-81.9-81.9V744.81c0-7.539 6.111-13.65 13.65-13.65 7.539 0 13.65 6.111 13.65 13.65v204.75c0 30.155 24.445 54.6 54.6 54.6h546c30.155 0 54.6-24.445 54.6-54.6V744.81c0-7.539 6.111-13.65 13.65-13.65 7.539 0 13.65 6.111 13.65 13.65v204.75c0 45.232-36.668 81.9-81.9 81.9z"/>
	<path vector-effect="non-scaling-stroke" d="M744.67 758.46h-409.5c-7.539 0-13.65-6.111-13.65-13.65 0-7.539 6.111-13.65 13.65-13.65h409.5c7.539 0 13.65 6.111 13.65 13.65 0 7.539-6.111 13.65-13.65 13.65zM539.915 895h-204.75c-7.539 0-13.65-6.111-13.65-13.65 0-7.539 6.111-13.65 13.65-13.65h204.75c7.539 0 13.65 6.111 13.65 13.65 0 7.539-6.111 13.65-13.65 13.65z"/>
	<path vector-effect="non-scaling-stroke" d="M705.107 636.392h-27.71l-22.604-59.815h-36.91v59.815h-26.235V490.828h63.145q26.345 0 38.712 11.903a40.786 40.786 0 0112.367 30.767q0 28.037-26.236 38.602zm-87.36-80.836h32.76q14.169 0 21.103-5.978a20.53 20.53 0 006.934-16.38 19.547 19.547 0 00-6.825-15.507 28.228 28.228 0 00-19.11-5.924h-34.725z" stroke="#000000" stroke-opacity=".21"/>
</svg>